<svg width="144" height="130" viewBox="0 0 144 130" fill="none" xmlns="http://www.w3.org/2000/svg">
<path d="M54.2961 52.2061C50.5076 53.2772 47.8848 55.7765 45.9906 58.5138L45.1163 59.7039V106H20.3455L10 97.5501V24.9521H34.7709L36.5194 26.3803C41.0364 24.7141 45.9906 24 50.7991 24C57.356 24 66.3901 25.4282 72.2186 30.6647C77.9013 25.9042 85.7697 24 93.2009 24C102.526 24 109.375 26.4993 114.329 30.4267L124.529 38.8766C131.231 44.2322 134 52.3251 134 60.656V106H109.229L98.8837 97.5501V55.5385C98.8837 54.3483 98.8837 53.2772 98.738 52.2061C94.9495 53.2772 92.3267 55.7765 90.4324 58.5138L89.5582 59.7039V106H64.7873L54.4418 97.5501V55.5385C54.4418 54.3483 54.4418 53.2772 54.2961 52.2061ZM27.9224 42.209C27.9224 42.9231 27.1939 43.5181 26.4653 43.5181C25.7368 43.5181 25.1539 43.1611 25.1539 42.447C25.1539 41.0189 28.2139 41.0189 28.2139 37.2105V30.3077H16.557V92.1945H28.2139V50.6589C30.9824 44.7083 37.2479 38.0435 47.302 38.0435C55.3161 38.0435 60.9988 42.209 60.9988 55.5385V92.1945H72.6557V50.6589C75.4242 44.7083 81.6898 38.0435 91.7438 38.0435C99.7579 38.0435 105.441 42.209 105.441 55.5385V92.1945H117.098V52.2061C117.098 34.1161 104.275 29.3556 93.2009 29.3556C78.047 29.3556 72.3643 38.2816 72.3643 42.209C72.3643 42.9231 71.6357 43.7562 70.9072 43.7562C70.1786 43.7562 69.5958 43.3991 69.5958 42.6851C69.5958 41.7329 70.1786 40.8999 70.1786 39.5907C70.1786 35.4253 64.0588 29.3556 50.7991 29.3556C33.6052 29.3556 27.9224 39.4717 27.9224 42.209Z" fill="black"/>
</svg>
